<svg width="52" height="52" viewBox="0 0 52 52" fill="none" xmlns="http://www.w3.org/2000/svg">
<path d="M18.5729 0C17.8887 0 17.335 0.556245 17.3324 1.24048V22.8477H8.2838H8.28641C7.79023 22.8477 7.34103 23.1428 7.14522 23.5998C6.95197 24.0568 7.0486 24.5843 7.39331 24.9421L25.1068 43.3557C25.3418 43.5985 25.6631 43.7369 25.9999 43.7369C26.3368 43.7369 26.658 43.5985 26.893 43.3557L44.6065 24.9421C44.9512 24.5843 45.0479 24.0568 44.8546 23.5998C44.6587 23.1428 44.2096 22.8477 43.7134 22.8477H34.6675V1.24048C34.6648 0.556292 34.1112 0 33.427 0H18.5729ZM1.24045 34.6677C0.9114 34.6677 0.595417 34.7957 0.362994 35.0281C0.130571 35.2605 0 35.5765 0 35.9056V43.3324C0 48.1035 3.89368 52 8.66756 52H43.3324C48.1036 52 52 48.1063 52 43.3324V35.9056C52 35.5765 51.8694 35.2605 51.637 35.0281C51.4046 34.7957 51.0886 34.6677 50.7595 34.6677C50.078 34.6677 49.5217 35.2214 49.5217 35.9056V43.3324C49.5217 46.7665 46.764 49.5216 43.3325 49.5216H8.66764C5.23358 49.5216 2.47848 46.7639 2.47848 43.3324V35.9056C2.47848 35.2214 1.92206 34.6677 1.24045 34.6677Z" fill="black"/>
</svg>
