<svg width="25" height="21" viewBox="0 0 25 21" fill="none" xmlns="http://www.w3.org/2000/svg">
<path d="M16.9119 3.26404H2.20547C0.99262 3.26404 0 4.15247 0 5.23803V19.0321C0 19.5457 0.316394 19.9927 0.831313 20.2166C1.03707 20.3018 1.25732 20.3481 1.47135 20.3481C1.795 20.3481 2.1114 20.249 2.36884 20.0649L7.60379 16.4261H16.9127C18.1256 16.4261 19.1182 15.5441 19.1182 14.4521V5.23812C19.1182 4.15257 18.1256 3.26413 16.9127 3.26413L16.9119 3.26404ZM8.45607 9.84488C8.45607 9.29886 8.94825 8.85741 9.55933 8.85741C10.1694 8.85741 10.6626 9.29794 10.6626 9.84488C10.6626 10.3909 10.1704 10.8324 9.55933 10.8324C8.94928 10.8324 8.45607 10.3918 8.45607 9.84488ZM14.3385 10.8324C13.7284 10.8324 13.2352 10.3918 13.2352 9.84488C13.2352 9.29886 13.7274 8.85741 14.3385 8.85741C14.9485 8.85741 15.4417 9.29794 15.4417 9.84488C15.4417 10.3909 14.9495 10.8324 14.3385 10.8324ZM4.7794 10.8324C4.16935 10.8324 3.67614 10.3918 3.67614 9.84488C3.67614 9.29886 4.16832 8.85741 4.7794 8.85741C5.38945 8.85741 5.88266 9.29794 5.88266 9.84488C5.88266 10.3909 5.39048 10.8324 4.7794 10.8324ZM25 1.97473V15.7688C25 16.2759 24.6836 16.7294 24.1687 16.9533C23.9629 17.0385 23.7427 17.0848 23.5286 17.0848C23.205 17.0848 22.8886 16.9857 22.6239 16.7951L20.1382 15.071C19.8146 14.847 19.7557 14.4324 20.0059 14.1492C20.2561 13.8595 20.7193 13.8068 21.0357 14.0308L23.5286 15.7614L23.5297 1.97492C23.5297 1.61308 23.1988 1.31693 22.7945 1.31693L8.08814 1.316C7.68386 1.316 7.35299 1.61215 7.35299 1.97399C7.35299 2.33584 7.02211 2.63198 6.61784 2.63198C6.21357 2.63198 5.88269 2.33584 5.88269 1.97399C5.88269 0.888439 6.87531 0 8.08816 0H22.7935C24.0063 0 24.999 0.888439 24.999 1.97399L25 1.97473Z" fill="white"/>
</svg>
