<svg width="77" height="71" viewBox="0 0 77 71" fill="none" xmlns="http://www.w3.org/2000/svg">
<path d="M69.6358 36.5892C67.3654 36.5892 65.5345 38.2978 65.5345 40.4164L65.5467 63.3569H8.19029V9.8216H32.7734C35.0437 9.8216 36.8624 8.11303 36.8624 6.00579C36.8624 3.88716 35.0437 2.18998 32.7734 2.18998L8.19029 2.17859C3.68624 2.17859 0 5.61851 0 9.8216V63.3455C0 67.5713 3.66183 70.9999 8.19029 70.9999H65.5345C70.063 70.9999 73.737 67.5713 73.737 63.3455V40.4164C73.737 38.2978 71.8939 36.5892 69.6358 36.5892Z" fill="white"/>
<path d="M74.9091 16.3824L58.5285 1.08494C56.9295 -0.361648 54.3784 -0.361648 52.7794 1.08494L17.6015 33.9123C16.8325 34.6185 16.4053 35.5867 16.3809 36.5891V51.8865C16.3809 54.0051 18.2118 55.7023 20.4821 55.7023H36.8627C37.949 55.7023 38.9865 55.2809 39.7433 54.5633L74.9091 21.7359C76.4592 20.2437 76.4592 17.8745 74.9091 16.3824Z" fill="white"/>
</svg>
