<svg width="83" height="74" viewBox="0 0 83 74" fill="none" xmlns="http://www.w3.org/2000/svg">
<path fill-rule="evenodd" clip-rule="evenodd" d="M25.702 26.4042C29.2917 20.8221 35.8053 17.3715 43.1914 17.5372C54.7209 17.7955 64.1245 26.3244 64.1245 37.0983C64.1245 47.8721 54.7209 56.6594 43.1914 56.6594C31.6619 56.6594 22.2583 47.8721 22.3694 37.1832L22.4805 0.807004L0 13.0011C3.55482 13.8189 4.20774 17.0283 4.09295 19.4405L4.01673 37.239C4.01673 57.2618 21.6145 73.7071 43.1923 73.7071C64.7701 73.7071 82.3678 57.2627 82.3678 37.0991C82.3678 16.9356 64.7691 0.491211 43.1923 0.491211C37.124 0.491211 31.3698 1.79214 26.0371 4.2095L25.702 26.4042Z" fill="white"/>
</svg>
