<svg width="85" height="83" viewBox="0 0 85 83" fill="none" xmlns="http://www.w3.org/2000/svg">
<path d="M42.9783 34.2043L36.1844 40.9442L33.8871 31.9227L42.9783 34.2043ZM84.738 74.2984L81.0589 70.6505L76.7887 74.8847V74.888L72.9441 78.7001L76.6265 82.3514C76.7279 82.4016 77.1502 82.3547 77.5556 81.9561L84.3461 75.2263C84.7481 74.8209 84.7886 74.3955 84.738 74.2984ZM79.3258 68.932L60.4339 50.203L45.3732 35.2696L41.9712 38.6429L75.9238 72.3087L79.3258 68.932ZM40.2386 40.3652L37.2589 43.323L71.2115 76.9855L74.1912 74.031L40.2386 40.3652ZM41.3636 63.6769C28.7626 63.6769 18.5123 53.5106 18.5123 41.0152C18.5123 28.5172 28.7626 18.35 41.3636 18.35C53.9646 18.35 64.2183 28.5163 64.2183 41.0152C64.2183 43.7922 63.7183 46.4921 62.7353 49.0481L69.0291 55.2888C70.3331 52.8066 71.2926 50.1635 71.8771 47.4167C71.9953 46.8539 72.4987 46.4519 73.0764 46.4519H82.7282L82.7316 35.5747H73.0728C72.4918 35.5747 71.9918 35.1727 71.8735 34.6099C71.083 30.8816 69.6134 27.3643 67.5053 24.1555C67.1877 23.6731 67.2553 23.04 67.6641 22.6314L74.4951 15.8581L66.735 8.16683L59.9107 14.9401C59.5019 15.3455 58.8566 15.4125 58.3736 15.1009C55.1405 13.0106 51.5933 11.5535 47.8301 10.7629C47.2626 10.6423 46.8572 10.1465 46.8572 9.57374V0H35.8812V9.57374C35.8812 10.1499 35.4758 10.6423 34.9083 10.7629C31.138 11.5501 27.5908 13.0106 24.3648 15.1009C23.8783 15.4158 23.2364 15.3455 22.8277 14.9401L15.9967 8.16683L8.23656 15.8581L15.0676 22.6314C15.4763 23.0367 15.5473 23.6731 15.2297 24.1555C13.1216 27.3646 11.6521 30.882 10.8615 34.6099C10.7433 35.1727 10.2399 35.5747 9.6622 35.5747H0V46.4553H9.6622C10.2433 46.4553 10.7433 46.8607 10.8615 47.4234C11.6487 51.1384 13.1183 54.6557 15.2297 57.8779C15.5439 58.3603 15.4763 58.9934 15.0676 59.402L8.23656 66.1753L15.9967 73.8666L22.8277 67.0966C23.2365 66.6913 23.8783 66.6243 24.3648 66.9392C27.5945 69.0294 31.1417 70.4866 34.9057 71.2705C35.4732 71.3877 35.8786 71.8869 35.8786 72.4597L35.882 82.0265H46.8553L46.8587 72.4562C46.8587 71.8801 47.2641 71.3843 47.8317 71.2671C51.4127 70.5201 54.7979 69.16 57.909 67.2272L51.8043 61.1774C48.5983 62.8121 45.0104 63.6764 41.3655 63.6764L41.3636 63.6769ZM32.4919 29.0703L45.6706 32.3733C45.6773 32.3766 45.6807 32.3766 45.6841 32.38C45.7821 32.4068 45.8767 32.4436 45.9645 32.4905C45.9746 32.4972 45.9814 32.5006 45.9915 32.5073C46.0253 32.5274 46.0591 32.5508 46.0929 32.5743C46.103 32.581 46.1131 32.5877 46.1233 32.5944C46.1638 32.6245 46.201 32.658 46.2381 32.6915L60.8127 47.143C61.4445 45.1733 61.7655 43.1232 61.7655 41.0162C61.7655 29.8612 52.6135 20.7831 41.3635 20.7831C30.1168 20.7831 20.9649 29.8612 20.9649 41.0162C20.9649 52.1713 30.1168 61.2459 41.3635 61.2459C44.3499 61.2459 47.2891 60.5961 49.9647 59.36L34.6576 44.1821L34.6542 44.1788C34.6204 44.1453 34.5867 44.1084 34.5596 44.0682C34.5529 44.0582 34.5461 44.0481 34.536 44.0381C34.5123 44.0079 34.4887 43.9744 34.4718 43.941C34.465 43.9309 34.4583 43.9242 34.4549 43.9142C34.4042 43.8271 34.3671 43.7333 34.3434 43.6395C34.34 43.6328 34.34 43.6294 34.3367 43.6227L31.0056 30.5519C30.9008 30.1365 31.0225 29.6977 31.3265 29.3962C31.6306 29.088 32.0765 28.9674 32.4921 29.0712L32.4919 29.0703Z" fill="white"/>
</svg>
