<svg width="38" height="34" viewBox="0 0 38 34" fill="none" xmlns="http://www.w3.org/2000/svg">
<path d="M34.5523 16.9778C34.5523 17.8291 34.0786 18.6804 33.1314 19.1061C29.974 20.8088 23.9749 23.7884 19.5544 25.7749C15.7654 27.4774 10.5557 29.4639 6.92463 30.8828C6.60889 31.0246 6.13527 31.1666 5.81953 31.1666C5.18804 31.1666 4.39869 30.8828 3.92507 30.4571C3.13571 29.7477 2.97783 28.7544 3.29358 27.7612L6.60889 18.9641C6.76676 18.3966 7.39825 18.1129 8.02974 18.1129H15.9234C16.5548 18.1129 17.1863 17.6871 17.1863 16.9778C17.1863 16.2684 16.7128 15.8426 15.9234 15.8426H8.02974C7.39825 15.8426 6.76676 15.4169 6.60889 14.8494L3.29358 6.05235C2.97783 5.20102 3.13571 4.20781 4.08294 3.49835C4.87229 2.78892 5.9774 2.64702 6.92463 3.07269C9.92422 4.20781 15.6076 6.47801 19.5544 8.18068C23.9749 10.1671 29.974 13.2887 33.1314 14.8494C34.0786 15.2751 34.5523 16.1264 34.5523 16.9778Z" fill="#C3272B"/>
</svg>
