<svg width="53" height="53" viewBox="0 0 53 53" fill="none" xmlns="http://www.w3.org/2000/svg">
<path fill-rule="evenodd" clip-rule="evenodd" d="M26.5 51.3438C39.3061 51.3438 49.6875 40.9624 49.6875 28.1562C49.6875 15.3501 39.3061 4.96875 26.5 4.96875C13.6939 4.96875 3.3125 15.3501 3.3125 28.1562C3.3125 32.3149 4.40728 36.2179 6.32434 39.5927L3.3125 51.3438L15.4277 48.5344C18.7179 50.3258 22.4901 51.3438 26.5 51.3438ZM26.5 47.7765C37.336 47.7765 46.1203 38.9923 46.1203 28.1562C46.1203 17.3204 37.336 8.53606 26.5 8.53606C15.6641 8.53606 6.87981 17.3204 6.87981 28.1562C6.87981 32.3401 8.18933 36.218 10.4209 39.4025L8.66346 45.9927L15.3699 44.3161C18.5324 46.4986 22.367 47.7765 26.5 47.7765Z" fill="#BFC8D0"/>
<path d="M46.375 26.5C46.375 37.4766 37.4766 46.375 26.5 46.375C22.3133 46.375 18.4289 45.0805 15.2253 42.8699L8.43182 44.5682L10.212 37.8924C7.95152 34.6665 6.625 30.7382 6.625 26.5C6.625 15.5233 15.5233 6.625 26.5 6.625C37.4766 6.625 46.375 15.5233 46.375 26.5Z" fill="#5BD066"/>
<path fill-rule="evenodd" clip-rule="evenodd" d="M26.5 49.6875C39.3061 49.6875 49.6875 39.3061 49.6875 26.5C49.6875 13.6939 39.3061 3.3125 26.5 3.3125C13.6939 3.3125 3.3125 13.6939 3.3125 26.5C3.3125 30.6587 4.40728 34.5616 6.32434 37.9364L3.3125 49.6875L15.4277 46.8782C18.7179 48.6696 22.4901 49.6875 26.5 49.6875ZM26.5 46.1203C37.336 46.1203 46.1203 37.336 46.1203 26.5C46.1203 15.6641 37.336 6.87981 26.5 6.87981C15.6641 6.87981 6.87981 15.6641 6.87981 26.5C6.87981 30.6839 8.18933 34.5618 10.4209 37.7463L8.66346 44.3365L15.3699 42.6599C18.5324 44.8423 22.367 46.1203 26.5 46.1203Z" fill="white"/>
<path d="M20.7031 15.7342C20.1519 14.6268 19.3061 14.7249 18.4518 14.7249C16.9249 14.7249 14.5439 16.5538 14.5439 19.9578C14.5439 22.7474 15.7732 25.801 19.9154 30.3691C23.9129 34.7778 29.1656 37.0582 33.5261 36.9806C37.8867 36.9031 38.7839 33.1505 38.7839 31.8833C38.7839 31.3217 38.4353 31.0414 38.1953 30.9652C36.7093 30.252 33.9685 28.9232 33.3449 28.6736C32.7214 28.424 32.3958 28.7618 32.1934 28.9454C31.6279 29.4842 30.507 31.0726 30.123 31.4298C29.7393 31.7871 29.1671 31.6062 28.9289 31.4712C28.0526 31.1196 25.6767 30.0627 23.7829 28.2268C21.4407 25.9564 21.3032 25.1751 20.862 24.4799C20.509 23.9235 20.768 23.5823 20.8972 23.4331C21.4019 22.8509 22.0987 21.9519 22.4112 21.5052C22.7236 21.0584 22.4756 20.3801 22.3267 19.9578C21.6866 18.1409 21.1442 16.62 20.7031 15.7342Z" fill="white"/>
</svg>
